<svg xmlns="http://www.w3.org/2000/svg" width="126.66" height="35" viewBox="0 0 126.66 35">
  <g id="蓝色logo" transform="translate(-40 -169)">
    <path id="路径_3578" data-name="路径 3578" d="M11.926-12.1,7.508,0H4.446L.086-12.1H3.009L5.76-3.547a5.422,5.422,0,0,1,.255,1.2h.049a6.163,6.163,0,0,1,.279-1.227L9.093-12.1Zm.755,7.82a4.3,4.3,0,0,1,1.342-3.352,5.164,5.164,0,0,1,3.609-1.219,4.908,4.908,0,0,1,3.481,1.2A4.189,4.189,0,0,1,22.4-4.43a4.449,4.449,0,0,1-1.322,3.383A4.979,4.979,0,0,1,17.5.211,4.97,4.97,0,0,1,13.983-1,4.262,4.262,0,0,1,12.681-4.281Zm2.685-.031q0,2.586,2.217,2.586,2.127,0,2.127-2.656,0-2.531-2.143-2.531a2.014,2.014,0,0,0-1.622.68A2.878,2.878,0,0,0,15.366-4.312ZM24.234,0V-12.789h2.644V0ZM34.6-.1a4.071,4.071,0,0,1-1.815.313,2.555,2.555,0,0,1-2.89-2.891V-6.758H28.4V-8.641h1.494v-1.9l2.636-.719v2.617H34.6v1.883H32.527v3.641q0,1.383,1.15,1.383a1.976,1.976,0,0,0,.92-.25Z" transform="translate(89 192.789)" fill="#fa6b33"/>
    <path id="路径_3579" data-name="路径 3579" d="M11.711-1.9A4.917,4.917,0,0,1,9.782-.344,6.234,6.234,0,0,1,7.1.224a6.447,6.447,0,0,1-3.245-.8,5.493,5.493,0,0,1-2.172-2.24A6.979,6.979,0,0,1,.912-6.144a6.768,6.768,0,0,1,.766-3.272,5.375,5.375,0,0,1,2.172-2.192A6.606,6.606,0,0,1,7.1-12.384a6.279,6.279,0,0,1,2.7.576,4.728,4.728,0,0,1,1.911,1.552l-1.244.768A3.771,3.771,0,0,0,8.98-10.64a4.544,4.544,0,0,0-1.9-.432,4.538,4.538,0,0,0-2.38.616A4.175,4.175,0,0,0,3.1-8.72a5.62,5.62,0,0,0-.568,2.576A5.845,5.845,0,0,0,3.1-3.512,4.3,4.3,0,0,0,4.7-1.728a4.407,4.407,0,0,0,2.38.64,4.3,4.3,0,0,0,1.875-.44A4.3,4.3,0,0,0,10.467-2.7ZM13.856-12.16h1.5v10.4q0,.656.739.656h.451V.144h-.793q-1.893,0-1.893-1.552ZM20.887.224a3.466,3.466,0,0,1-2.208-.648,2.083,2.083,0,0,1-.82-1.72q0-2.752,4.723-2.752h1.37v-.688a1.747,1.747,0,0,0-.595-1.384,2.3,2.3,0,0,0-1.568-.52,3.959,3.959,0,0,0-2.416.928l-.883-.9A4.992,4.992,0,0,1,21.861-8.7a3.984,3.984,0,0,1,2.623.8,2.66,2.66,0,0,1,.965,2.16V0h-1.5V-1.216h-.108a2.841,2.841,0,0,1-1.226,1.04A3.937,3.937,0,0,1,20.887.224Zm.27-1.216a3.583,3.583,0,0,0,1.244-.24,2.714,2.714,0,0,0,1.1-.744,1.815,1.815,0,0,0,.451-1.256V-3.68H22.87a7.159,7.159,0,0,0-2.632.36,1.173,1.173,0,0,0-.847,1.1,1.044,1.044,0,0,0,.478.9A2.2,2.2,0,0,0,21.158-.992ZM29.829,0,26.656-8.48H28.3l2.29,6.672h.09L32.912-8.48h1.623l2.272,6.672h.09L39.168-8.48h1.641L37.653,0H36.031L33.777-6.688h-.09L31.452,0Z" transform="translate(125.852 192.384)" fill="#5690cd"/>
    <g id="蓝色" transform="translate(-4334.853 -1458)">
      <path id="矩形_6022" data-name="矩形 6022" d="M4,2A2,2,0,0,0,2,4V24a2,2,0,0,0,2,2H14a2,2,0,0,0,2-2V4a2,2,0,0,0-2-2H4M4,0H14a4,4,0,0,1,4,4V24a4,4,0,0,1-4,4H4a4,4,0,0,1-4-4V4A4,4,0,0,1,4,0Z" transform="translate(4387 1634)" fill="#5891cd"/>
      <path id="矩形_6023" data-name="矩形 6023" d="M0,0H12a0,0,0,0,1,0,0V13a1,1,0,0,1-1,1H1a1,1,0,0,1-1-1V0A0,0,0,0,1,0,0Z" transform="translate(4390 1645)" fill="#5891cd"/>
      <circle id="椭圆_636" data-name="椭圆 636" cx="1" cy="1" r="1" transform="translate(4392 1639)" fill="#5891cd"/>
      <circle id="椭圆_637" data-name="椭圆 637" cx="1" cy="1" r="1" transform="translate(4398 1639)" fill="#5891cd"/>
      <circle id="椭圆_638" data-name="椭圆 638" cx="1" cy="1" r="1" transform="translate(4400 1627)" fill="#5891cd"/>
      <circle id="椭圆_639" data-name="椭圆 639" cx="1" cy="1" r="1" transform="translate(4390 1627)" fill="#5891cd"/>
      <rect id="矩形_6024" data-name="矩形 6024" width="8" height="4" rx="2" transform="translate(4392 1632)" fill="#5891cd"/>
      <path id="路径_3565" data-name="路径 3565" d="M4397.352,1708.725h-.039a.5.5,0,0,1-.46-.537,5.225,5.225,0,0,1,.613-1.893,5.866,5.866,0,0,1,3.451-2.791.5.5,0,1,1,.313.95,4.7,4.7,0,0,0-3.38,3.81A.5.5,0,0,1,4397.352,1708.725Z" transform="translate(0 -76)" fill="#5891cd"/>
      <path id="路径_3566" data-name="路径 3566" d="M4401.512,1708.677a.5.5,0,0,1-.5-.437h0a4.581,4.581,0,0,0-.584-1.544,5.15,5.15,0,0,0-2.94-2.291.5.5,0,1,1,.313-.95,6.171,6.171,0,0,1,3.515,2.778,5.462,5.462,0,0,1,.689,1.883.5.5,0,0,1-.5.561Z" transform="translate(-7.073 -76)" fill="#5891cd"/>
      <g id="组_12670" data-name="组 12670" transform="translate(4335 1594)">
        <path id="路径_3567" data-name="路径 3567" d="M4404.636,1722.943l-.448-1.949c.035-.008,3.505-.845,4.662-3.357l1.816.836C4409.095,1721.887,4404.817,1722.9,4404.636,1722.943Z" transform="translate(-4335 -1670)" fill="#5891cd"/>
        <path id="减去_352" data-name="减去 352" d="M-4330-1655.5a4.717,4.717,0,0,1-3.622-1.833,7.071,7.071,0,0,1-1.55-4.526,4.935,4.935,0,0,1,.752-2.71,7.757,7.757,0,0,1,1.983-2.023c.027-.027.055-.055.083-.084l1.354,4.178c.024.052.239.5.5.5a.5.5,0,0,0,.5-.5l-.111-6c.038,0,.075,0,.111,0,2.757,0,5,2.916,5,6.5S-4327.243-1655.5-4330-1655.5Z" transform="translate(4407 1705.5)" fill="#5891cd"/>
      </g>
      <g id="组_12671" data-name="组 12671" transform="translate(4374.853 1631)">
        <path id="路径_3567-2" data-name="路径 3567" d="M4409.535,1722.943c-.181-.042-4.458-1.056-6.03-4.47l1.816-.836c1.156,2.512,4.627,3.349,4.662,3.357Z" transform="translate(-4397.17 -1707)" fill="#5891cd"/>
        <path id="减去_352-2" data-name="减去 352" d="M5.172,0A4.717,4.717,0,0,0,1.55,1.833,7.071,7.071,0,0,0,0,6.359,4.935,4.935,0,0,0,.752,9.07a7.757,7.757,0,0,0,1.983,2.023c.027.027.055.055.083.084L4.172,7c.024-.052.239-.5.5-.5a.5.5,0,0,1,.5.5l-.111,6c.038,0,.075,0,.111,0,2.757,0,5-2.916,5-6.5S7.93,0,5.172,0Z" transform="translate(10.173 12.999) rotate(180)" fill="#5891cd"/>
      </g>
    </g>
  </g>
</svg>
